<svg width="48" height="48" viewBox="0 0 48 48" fill="none" xmlns="http://www.w3.org/2000/svg">
<path d="M44.6078 35.25L47.196 28.779L45.8032 28.2218L42.9923 35.25H42.75V26.25H41.25V14.25H38.25V11.25H36.75V14.25H35.25V9.75H33.75V14.25H32.25V11.25H30.75V14.25H27.75V23.25H24.75V27.0968C22.9822 24.9263 20.5695 23.3452 17.8312 22.6207L17.4907 21.6C18.5842 21.2977 19.4828 20.5245 19.932 19.5H20.25C21.9045 19.5 23.25 18.1545 23.25 16.5V12.75C24.0773 12.75 24.75 12.0773 24.75 11.25V9.75C24.75 8.92275 24.0773 8.25 23.25 8.25H23.1195C22.4018 3.93 18.7072 0.75 14.25 0.75C9.79275 0.75 6.09825 3.93 5.3805 8.25H5.25C4.42275 8.25 3.75 8.92275 3.75 9.75V11.25C3.75 12.0773 4.42275 12.75 5.25 12.75V16.5C5.25 18.1545 6.5955 19.5 8.25 19.5H8.568C9.018 20.5245 9.91575 21.2985 11.0092 21.6L10.6688 22.6207C4.8075 24.1665 0.75 29.406 0.75 35.5065V36C0.75 39.198 2.583 41.9707 5.25 43.3395V47.25H27.75V41.25H30.0758C30.4245 42.9593 31.9388 44.25 33.75 44.25C35.5612 44.25 37.0755 42.9593 37.4242 41.25H41.1885C44.1997 41.25 46.7452 39.0938 47.2402 36.1238L47.3857 35.25H44.6078ZM35.25 35.25V27.75H41.25V35.25H35.25ZM29.25 15.75H39.75V26.25H35.25V23.25H29.25V15.75ZM33.75 24.75V35.25H26.25V24.75H33.75ZM24.75 29.757V35.25H24.5077L21.696 28.221L20.3032 28.7782L22.8923 35.25H20.115L20.2605 36.1238C20.4592 37.3163 20.9925 38.3745 21.75 39.2175V45.75H18V44.25C19.2405 44.25 20.25 43.2405 20.25 42C20.25 40.7595 19.2405 39.75 18 39.75V24.2452C20.8597 25.1542 23.2785 27.1162 24.75 29.757ZM15.9592 21.75L16.422 23.139L14.25 26.3977L12.0773 23.139L12.5408 21.75H15.9592ZM16.5 29.3617L15.1785 27.7095L16.5 25.7273V29.3617ZM12 29.3617V25.7273L13.3215 27.7095L12 29.3617ZM12 31.7625L14.25 28.95L16.5 31.7625V38.382C16.2645 38.2987 16.0133 38.25 15.75 38.25H14.8718C14.271 38.25 13.7055 38.484 13.2803 38.9093L12.5107 39.6787L12 39.5647V31.7625ZM13.5 40.8105L14.3408 39.9697C14.4825 39.828 14.6715 39.75 14.8718 39.75H15.75C16.1632 39.75 16.5 40.0868 16.5 40.5V41.25H18C18.4132 41.25 18.75 41.5868 18.75 42C18.75 42.4132 18.4132 42.75 18 42.75H13.5V40.8105ZM16.5 44.25V45.75H12V44.25H16.5ZM20.25 18V15C21.0773 15 21.75 15.6727 21.75 16.5C21.75 17.3273 21.0773 18 20.25 18ZM21.75 13.917C21.3067 13.659 20.799 13.5 20.25 13.5V12.75H21.75V13.917ZM21.597 8.25H16.5V2.5935C19.0762 3.39225 21.0525 5.529 21.597 8.25ZM15 2.2875V8.25H13.5V2.2875C13.7467 2.2635 13.9965 2.25 14.25 2.25C14.5035 2.25 14.7533 2.2635 15 2.2875ZM12 2.5935V8.25H6.903C7.4475 5.529 9.42375 3.39225 12 2.5935V2.5935ZM5.24925 9.75H5.25H23.25V11.25H5.25L5.24925 9.75ZM8.25 12.75V13.5C7.701 13.5 7.19325 13.659 6.75 13.917V12.75H8.25ZM6.75 16.5C6.75 15.6727 7.42275 15 8.25 15V18C7.42275 18 6.75 17.3273 6.75 16.5ZM9.75 18V12.75H18.75V18C18.75 19.2405 17.7405 20.25 16.5 20.25H12C10.7595 20.25 9.75 19.2405 9.75 18ZM2.25 36V35.5065C2.25 30.2865 5.598 25.7805 10.5 24.2347V39.2325L9.68625 39.0518C7.9575 38.667 6.75 37.1618 6.75 35.3903V32.25H5.25V35.3903C5.25 37.8698 6.9405 39.9773 9.36075 40.515L12 41.1015V42.75H9C5.2785 42.75 2.25 39.7215 2.25 36V36ZM6.75 43.9305C7.46625 44.1338 8.21925 44.25 9 44.25H10.5V45.75H6.75V43.9305ZM23.25 45.75V40.4355C24.1372 40.9455 25.1625 41.2365 26.25 41.2478V45.75H23.25ZM33.75 42.75C32.5095 42.75 31.5 41.7405 31.5 40.5C31.5 40.0868 31.8368 39.75 32.25 39.75H35.25C35.6632 39.75 36 40.0868 36 40.5C36 41.7405 34.9905 42.75 33.75 42.75ZM41.1877 39.75H37.3612C37.0507 38.8792 36.2258 38.25 35.2493 38.25H32.2493C31.2728 38.25 30.4477 38.8792 30.1372 39.75H26.3108C24.3428 39.75 22.6387 38.5312 21.972 36.75H45.525C44.8598 38.5312 43.1565 39.75 41.1877 39.75V39.75Z" fill="#418AC3"/>
<path d="M36.75 17.25H38.25V18.75H36.75V17.25Z" fill="#418AC3"/>
<path d="M33.75 17.25H35.25V18.75H33.75V17.25Z" fill="#418AC3"/>
<path d="M30.75 17.25H32.25V18.75H30.75V17.25Z" fill="#418AC3"/>
<path d="M36.75 20.25H38.25V21.75H36.75V20.25Z" fill="#418AC3"/>
<path d="M30.75 20.25H32.25V21.75H30.75V20.25Z" fill="#418AC3"/>
<path d="M33.75 20.25H35.25V21.75H33.75V20.25Z" fill="#418AC3"/>
<path d="M36.75 23.25H38.25V24.75H36.75V23.25Z" fill="#418AC3"/>
<path d="M27.75 26.25H29.25V33.75H27.75V26.25Z" fill="#418AC3"/>
<path d="M30.75 26.25H32.25V33.75H30.75V26.25Z" fill="#418AC3"/>
<path d="M36.75 29.25H39.75V30.75H36.75V29.25Z" fill="#418AC3"/>
<path d="M36.75 32.25H39.75V33.75H36.75V32.25Z" fill="#418AC3"/>
</svg>
