<svg width="48" height="48" viewBox="0 0 48 48" fill="none" xmlns="http://www.w3.org/2000/svg">
<path d="M3 45H1.5V46.5H3V45Z" fill="#418AC3"/>
<path d="M39.75 6H20.25V7.5H39.75V6Z" fill="#418AC3"/>
<path d="M18.75 6H17.25V7.5H18.75V6Z" fill="#418AC3"/>
<path d="M43.5 27.75C43.5 27.5511 43.421 27.3603 43.2803 27.2197C43.1397 27.079 42.9489 27 42.75 27H39.75V23.25C39.75 23.0511 39.671 22.8603 39.5303 22.7197C39.3897 22.579 39.1989 22.5 39 22.5H34.5V19.5H39C39.1989 19.5 39.3897 19.421 39.5303 19.2803C39.671 19.1397 39.75 18.9489 39.75 18.75V15H44.25C44.4489 15 44.6397 14.921 44.7803 14.7803C44.921 14.6397 45 14.4489 45 14.25V9.75C45 9.55109 44.921 9.36032 44.7803 9.21967C44.6397 9.07902 44.4489 9 44.25 9H12.75C12.5511 9 12.3603 9.07902 12.2197 9.21967C12.079 9.36032 12 9.55109 12 9.75V14.25C12 14.4489 12.079 14.6397 12.2197 14.7803C12.3603 14.921 12.5511 15 12.75 15H17.25V18H2.25C2.05109 18 1.86032 18.079 1.71967 18.2197C1.57902 18.3603 1.5 18.5511 1.5 18.75V23.25C1.5 23.4489 1.57902 23.6397 1.71967 23.7803C1.86032 23.921 2.05109 24 2.25 24H6.75V27.75C6.75 27.9489 6.82902 28.1397 6.96967 28.2803C7.11032 28.421 7.30109 28.5 7.5 28.5H12V31.5H7.5C7.30109 31.5 7.11032 31.579 6.96967 31.7197C6.82902 31.8603 6.75 32.0511 6.75 32.25V36.75C6.75 36.9489 6.82902 37.1397 6.96967 37.2803C7.11032 37.421 7.30109 37.5 7.5 37.5H12V40.5H7.5C7.30109 40.5 7.11032 40.579 6.96967 40.7197C6.82902 40.8603 6.75 41.0511 6.75 41.25V45H4.5V46.5H46.5V45H43.5V27.75ZM42 45H24V37.095L28.9883 32.82C28.995 32.814 28.9973 32.805 29.004 32.799C29.057 32.7472 29.102 32.6878 29.1375 32.6228C29.1542 32.6006 29.1697 32.5775 29.184 32.5537C29.2271 32.4583 29.2496 32.3548 29.25 32.25V28.5H42V45ZM18.75 33H26.475L22.9725 36H18.75V33ZM13.5 19.5H22.5V22.5H13.5V19.5ZM18.75 24H27.75V27H18.75V24ZM24 28.5H27.75V31.5H24V28.5ZM38.25 27H29.25V24H38.25V27ZM33 22.5H24V19.5H33V22.5ZM38.25 18H29.25V15H38.25V18ZM43.5 13.5H34.5V10.5H43.5V13.5ZM33 13.5H24V10.5H33V13.5ZM13.5 10.5H22.5V13.5H13.5V10.5ZM18.75 15H27.75V18H18.75V15ZM3 19.5H12V22.5H3V19.5ZM8.25 24H17.25V27H8.25V24ZM13.5 28.5H22.5V31.5H13.5V28.5ZM8.25 33H17.25V36H8.25V33ZM13.5 37.5H22.5V40.5H13.5V37.5ZM8.25 42H17.25V45H8.25V42ZM18.75 42H22.5V45H18.75V42Z" fill="#418AC3"/>
<path d="M46.5 30H45V40.5H46.5V30Z" fill="#418AC3"/>
</svg>
