<svg width="48" height="48" viewBox="0 0 48 48" fill="none" xmlns="http://www.w3.org/2000/svg">
<g clip-path="url(#clip0)">
<path d="M47.0008 10.9997C46.4471 10.9997 45.9988 11.4472 45.9988 11.9995V19.9997H44.0008V17.9995C44.0008 15.7942 42.2049 13.9998 39.9988 13.9998C38.8065 13.9998 37.7342 14.5248 36.9988 15.3592C36.2664 14.5265 35.1941 13.9998 33.9988 13.9998C32.8064 13.9998 31.7342 14.5248 30.9987 15.3592C30.2664 14.5265 29.1941 13.9998 27.9987 13.9998C26.8062 13.9998 25.7341 14.5248 24.9995 15.3592C24.2663 14.5265 23.194 13.9998 21.9995 13.9998C20.8064 13.9998 19.7335 14.5248 18.9995 15.3592C18.2663 14.5265 17.194 13.9998 15.9994 13.9998C14.8064 13.9998 13.7335 14.5248 12.9994 15.3592C12.2663 14.5265 11.194 13.9998 9.99942 13.9998C8.13988 13.9998 6.57096 15.2763 6.12565 16.9998H3.00001C2.44688 16.9998 2.00026 17.4473 2.00026 17.9996V19.9999H0.999754C0.868458 19.9998 0.73844 20.0256 0.617128 20.0758C0.495816 20.1261 0.385589 20.1997 0.292744 20.2925C0.1999 20.3854 0.126259 20.4956 0.0760283 20.6169C0.0257979 20.7382 -3.69196e-05 20.8682 3.95991e-08 20.9995C3.95991e-08 21.5519 0.447471 21.9993 0.999754 21.9993H2.00026V23.9995C2.00026 24.5527 2.44773 24.9993 3.00001 24.9993H6.00002V44.0002C6.00002 46.2049 7.79441 47.9992 9.99979 47.9992C11.1944 47.9992 12.2667 47.4719 12.9998 46.6399C13.7337 47.4719 14.8067 47.9992 15.9998 47.9992C17.1944 47.9992 18.2667 47.4719 18.9998 46.6399C19.7337 47.4719 20.8067 47.9992 21.9998 47.9992C23.1944 47.9992 24.2667 47.4719 24.9998 46.6399C25.7345 47.4719 26.8067 47.9992 27.9991 47.9992C29.1944 47.9992 30.2667 47.4719 30.9991 46.6399C31.7345 47.4719 32.8066 47.9992 33.9991 47.9992C35.1945 47.9992 36.2668 47.4719 36.9991 46.6399C37.7345 47.4719 38.8067 47.9992 39.9992 47.9992C42.2051 47.9992 44.0012 46.2049 44.0012 44.0002V21.9992H47.0012C47.2662 21.9988 47.5202 21.8934 47.7075 21.7059C47.8948 21.5185 48 21.2644 48.0002 20.9994V11.9994C48 11.7344 47.8947 11.4803 47.7074 11.2928C47.5201 11.1054 47.266 10.9999 47.001 10.9996L47.0008 10.9997ZM6.00002 22.9997H3.99977V18.9992H6.00002V22.9997ZM12 44.0003C12 45.1019 11.1035 45.9983 9.99979 45.9983C8.89757 45.9983 8.00028 45.1019 8.00028 44.0003V17.9995C8.00028 16.8972 8.89747 15.9992 9.99979 15.9992C11.1034 15.9992 12 16.897 12 17.9995V44.0002V44.0003ZM18.0001 44.0003C18 45.1019 17.1035 45.9983 15.9998 45.9983C14.8976 45.9983 14.0003 45.1019 14.0003 44.0003V17.9995C14.0003 16.8972 14.8975 15.9992 15.9998 15.9992C17.1034 15.9992 18.0001 16.897 18.0001 17.9995V44.0002V44.0003ZM24.0001 44.0003C24.0001 45.1019 23.1037 45.9983 21.9998 45.9983C20.8976 45.9983 20.0003 45.1019 20.0003 44.0003V17.9995C20.0003 16.8972 20.8975 15.9992 21.9998 15.9992C23.1036 15.9992 24.0001 16.8972 24.0001 17.9995V44.0002V44.0003ZM30.0001 44.0003C30.0001 45.1019 29.1037 45.9983 27.9991 45.9983C26.8975 45.9983 26.0011 45.1019 26.0011 44.0003V17.9995C26.0011 16.8972 26.8975 15.9992 27.9991 15.9992C29.1035 15.9992 30.0001 16.8972 30.0001 17.9995V44.0002V44.0003ZM36.0001 44.0003C36.0001 45.1019 35.1037 45.9983 33.9991 45.9983C32.8976 45.9983 32.0011 45.1019 32.0011 44.0003V17.9995C32.0011 16.8972 32.8976 15.9992 33.9991 15.9992C35.1035 15.9992 36.0001 16.8972 36.0001 17.9995V44.0002V44.0003ZM42.0002 44.0003C42.0002 45.1019 41.1037 45.9983 39.9992 45.9983C38.8976 45.9983 38.0012 45.1019 38.0012 44.0003V17.9995C38.0012 16.8972 38.8976 15.9992 39.9992 15.9992C41.1035 15.9992 42.0002 16.8972 42.0002 17.9995V44.0002V44.0003ZM33.4567 9.71863C33.3337 9.293 33.4098 8.98325 33.7087 8.68222C34.5202 7.86706 34.7896 6.80871 34.4645 5.69983C34.2478 4.95564 33.8259 4.42979 33.7731 4.36389C33.7703 4.36389 33.7703 4.36314 33.7703 4.36314V4.36173C33.5856 4.14048 33.3104 3.9992 32.9997 3.9992C32.4465 3.9992 32.0008 4.44733 32.0008 4.9997C32.0008 5.24214 32.0857 5.4647 32.2293 5.63767C32.2321 5.63983 32.4431 5.91311 32.5457 6.26168C32.6644 6.67108 32.5898 6.97287 32.2907 7.27099C31.4821 8.08456 31.2112 9.15022 31.5334 10.2708C31.7517 11.0304 32.1735 11.5679 32.2204 11.6274V11.6266C32.4051 11.8537 32.6848 11.9995 32.9997 11.9995C33.1309 11.9994 33.2608 11.9735 33.3821 11.9233C33.5033 11.873 33.6135 11.7993 33.7062 11.7065C33.799 11.6137 33.8726 11.5035 33.9227 11.3822C33.9729 11.2609 33.9987 11.131 33.9987 10.9997C33.9987 10.7616 33.9166 10.5434 33.7789 10.3721C33.7761 10.3693 33.5592 10.0828 33.4566 9.71863H33.4567ZM25.1866 9.05572C24.956 8.13359 25.1405 7.34993 25.7491 6.66068C26.8184 5.4513 27.1582 3.97051 26.7335 2.37385C26.4346 1.25466 25.8605 0.47756 25.796 0.392623V0.393185C25.6113 0.153653 25.3251 -0.00244141 24.9998 -0.00244141C24.4474 -0.00244141 23.9999 0.445029 23.9999 0.997313C23.9996 1.21448 24.0706 1.42575 24.202 1.59863H24.2005C24.2049 1.60444 24.6217 2.1705 24.8143 2.94113C25.0443 3.86242 24.8597 4.64617 24.2503 5.33533C23.1816 6.54471 22.8427 8.02559 23.2675 9.62225C23.5649 10.7414 24.1399 11.5185 24.2035 11.6035L24.205 11.602C24.3874 11.8429 24.6753 11.9976 24.9998 11.9976C25.5527 11.9976 26.001 11.5501 26.001 10.9979C26.001 10.7715 25.9249 10.5635 25.7989 10.3965C25.7945 10.3907 25.3778 9.82466 25.1867 9.05478L25.1866 9.05572ZM17.7788 10.372C17.7767 10.3692 17.5606 10.0827 17.4559 9.71853C17.3335 9.29291 17.409 8.98316 17.7085 8.68212C18.5208 7.86696 18.7888 6.80862 18.4643 5.69974C18.2468 4.95555 17.8268 4.43129 17.7706 4.36379L17.7691 4.36098V4.36173C17.5853 4.14048 17.3091 3.9992 17.0003 3.9992C16.735 3.9994 16.4807 4.10487 16.2931 4.29246C16.1055 4.48005 16 4.73441 15.9998 4.9997C15.9998 5.24214 16.0863 5.4647 16.2298 5.63767C16.2319 5.63983 16.4429 5.91311 16.5448 6.26168C16.6648 6.67108 16.5888 6.97287 16.2914 7.27099C15.4814 8.08456 15.2118 9.15022 15.5342 10.2708C15.7524 11.0304 16.1743 11.5679 16.2219 11.6274V11.6266C16.4057 11.8537 16.6855 11.9995 17.0005 11.9995C17.5536 11.9995 18.0003 11.552 18.0003 10.9997C18.0003 10.7616 17.9159 10.5434 17.7784 10.3721H17.7791L17.7788 10.372Z" fill="#418AC3"/>
</g>
<defs>
<clipPath id="clip0">
<rect width="48" height="48" fill="white"/>
</clipPath>
</defs>
</svg>
