<svg width="14" height="14" viewBox="0 0 14 14" fill="none" xmlns="http://www.w3.org/2000/svg">
<path d="M13.7083 2.60192C11.7869 4.22918 8.41534 7.09201 7.4244 7.98465C7.29137 8.10513 7.14869 8.16638 7.00057 8.16638C6.85275 8.16638 6.71032 8.1057 6.57759 7.9858C5.5858 7.09229 2.21426 4.22918 0.292792 2.60192C0.173163 2.5008 0.154924 2.32307 0.251777 2.19945C0.475667 1.91379 0.809479 1.75 1.16724 1.75H12.8339C13.1916 1.75 13.5255 1.91379 13.7493 2.19948C13.8462 2.32307 13.8279 2.5008 13.7083 2.60192Z" fill="#3F3F3F" fill-opacity="0.9"/>
<path d="M0.169176 3.48422C0.272563 3.4361 0.394188 3.45289 0.480211 3.52639C2.61106 5.33277 5.33061 7.64818 6.18625 8.4192C6.66649 8.8527 7.33299 8.8527 7.81435 8.41862C8.72638 7.59689 11.7803 5.00065 13.5198 3.52636C13.6064 3.45286 13.7283 3.43665 13.8308 3.4842C13.9339 3.53207 14 3.63519 14 3.74883V11.0838C14 11.7272 13.4768 12.2505 12.8333 12.2505H1.16665C0.523222 12.2505 0 11.7272 0 11.0838V3.74883C0 3.63519 0.0660906 3.5318 0.169176 3.48422Z" fill="#3F3F3F" fill-opacity="0.9"/>
</svg>
