<svg width="17" height="17" viewBox="0 0 17 17" fill="none" xmlns="http://www.w3.org/2000/svg">
<path d="M16.1145 2.18223L14.3712 0.433796C13.7931 -0.144599 12.8574 -0.144599 12.2748 0.433796L10.8846 1.82459C10.3065 2.40299 10.3065 3.34343 10.8846 3.92183C11.4628 4.50022 11.4628 5.44067 10.8846 6.01906L6.01219 10.9067C5.43403 11.4851 4.49839 11.4851 3.91581 10.9067C3.33765 10.3283 2.40201 10.3283 1.82385 10.9067L0.433619 12.2975C-0.14454 12.8759 -0.14454 13.8164 0.433619 14.3948L2.15044 16.1167C2.58296 16.5494 3.24497 16.6818 3.80106 16.4258C11.8644 12.6993 15.3554 6.24865 16.4235 3.82911C16.675 3.26837 16.547 2.61933 16.1145 2.18223Z" fill="#6F6B6B"/>
</svg>
