<svg width="14" height="15" viewBox="0 0 14 15" fill="none" xmlns="http://www.w3.org/2000/svg">
<path d="M13.6305 1.84584L12.1559 0.366927C11.6669 -0.122309 10.8755 -0.122309 10.3827 0.366927L9.20675 1.54333C8.71772 2.03257 8.71772 2.82804 9.20675 3.31728C9.69579 3.80651 9.69579 4.60199 9.20675 5.09122L5.08541 9.22545C4.59638 9.71469 3.80496 9.71469 3.31219 9.22545C2.82316 8.73622 2.03174 8.73622 1.5427 9.22545L0.366777 10.4019C-0.122259 10.8911 -0.122259 11.6866 0.366777 12.1758L1.81895 13.6323C2.1848 13.9983 2.74476 14.1103 3.21513 13.8937C10.0355 10.7417 12.9884 5.28542 13.8918 3.23885C14.1046 2.76455 13.9963 2.21556 13.6305 1.84584Z" fill="#3F3F3F" fill-opacity="0.9"/>
</svg>
