<svg width="48" height="48" viewBox="0 0 48 48" fill="none" xmlns="http://www.w3.org/2000/svg">
<g clip-path="url(#clip0)">
<path d="M0.15204 4.40332L3.35326 10.0051C3.46124 10.1944 3.64197 10.3314 3.85332 10.3844L6.8399 11.131L17.0832 21.3743L18.215 20.2428L7.81139 9.83953C7.70901 9.73681 7.58061 9.66406 7.44004 9.62883L4.57034 8.90886L1.84483 4.13666L4.18154 1.79994L8.95572 4.52809L9.67602 7.39779C9.71092 7.53869 9.784 7.66741 9.88639 7.7698L20.29 18.1734L21.4215 17.0416L11.1782 6.79831L10.4316 3.81338C10.3786 3.6017 10.2416 3.42063 10.0523 3.31232L4.45018 0.111436C4.13776 -0.0663359 3.74468 -0.0136627 3.48988 0.240157L0.28899 3.44137C0.0315495 3.69453 -0.0244158 4.08827 0.15204 4.40332V4.40332Z" fill="#418AC3"/>
<path d="M33.4241 15.7721L15.8183 33.3782L14.6865 32.2463L32.2926 14.6406L33.4241 15.7721Z" fill="#418AC3"/>
<path d="M12.7374 34.0009C12.5925 33.7599 12.3324 33.6128 12.0513 33.6128H7.2498C6.96898 33.6128 6.70858 33.7599 6.56406 34.0009L4.16315 38.0021C4.01072 38.2556 4.01072 38.5726 4.16315 38.8265L6.56406 42.8277C6.70858 43.0683 6.96898 43.2158 7.2498 43.2158H12.0513C12.3324 43.2158 12.5925 43.0683 12.7374 42.8277L15.1379 38.8265C15.2904 38.5726 15.2904 38.2556 15.1379 38.0021L12.7374 34.0009ZM11.5986 41.6152H7.70279L5.78219 38.4143L7.70279 35.2131H11.5986L13.5192 38.4143L11.5986 41.6152Z" fill="#418AC3"/>
<path d="M38.4595 19.2079C43.7449 19.2257 48.0444 14.9552 48.0622 9.6698C48.0648 8.86522 47.966 8.06393 47.7682 7.28403C47.6615 6.85508 47.2273 6.59401 46.7983 6.70068C46.6574 6.7359 46.529 6.80866 46.4263 6.91104L41.4448 11.8893L37.4923 10.5722L36.1741 6.62068L41.1557 1.63812C41.4681 1.32537 41.4678 0.818721 41.1551 0.506303C41.052 0.403261 40.9223 0.330177 40.7804 0.295281C35.6546 -1.00279 30.4476 2.1 29.1495 7.22543C28.9523 8.00302 28.8539 8.80234 28.8565 9.60462C28.8585 10.2347 28.9233 10.8629 29.0511 11.4798L11.525 29.0055C10.9081 28.8781 10.28 28.8132 9.6502 28.8109C4.34633 28.8109 0.046875 33.1104 0.046875 38.4143C0.046875 43.7178 4.34633 48.0172 9.6502 48.0172C14.9537 48.0172 19.2532 43.7178 19.2532 38.4143C19.2512 37.7842 19.186 37.156 19.0586 36.5391L23.2544 32.3433L25.0894 34.1783C25.4021 34.4908 25.9085 34.4908 26.2212 34.1783L26.6212 33.778C26.9721 33.4294 27.5393 33.4294 27.8903 33.778C28.2409 34.1276 28.2415 34.6952 27.8919 35.0458C27.8916 35.0461 27.8909 35.0468 27.8903 35.0474L27.4903 35.4474C27.1779 35.7599 27.1779 36.2665 27.4903 36.5789L37.0367 46.1253C39.5475 48.6592 43.637 48.6776 46.1709 46.1668C48.7044 43.6559 48.7229 39.5662 46.212 37.0326C46.1985 37.0187 46.1847 37.0049 46.1709 36.9911L36.6245 27.4451C36.3121 27.1326 35.8054 27.1326 35.493 27.4451L35.093 27.845C34.7418 28.194 34.1749 28.194 33.8236 27.845C33.4733 27.4954 33.4723 26.9279 33.8219 26.5776C33.8226 26.5769 33.8233 26.5766 33.8236 26.5759L34.2239 26.1756C34.5363 25.8632 34.5363 25.3566 34.2239 25.0441L32.3889 23.2091L36.5847 19.0134C37.2016 19.1408 37.8297 19.206 38.4595 19.2079V19.2079ZM41.6038 46.417C41.0224 46.416 40.4459 46.311 39.9018 46.1065L46.1518 39.8562C47.0949 42.3651 45.8259 45.1633 43.317 46.1065C42.7695 46.3123 42.1891 46.4176 41.6038 46.417ZM32.5377 25.6179C31.6515 26.675 31.7904 28.2506 32.8475 29.1365C33.7765 29.9151 35.1306 29.9144 36.0586 29.1342L45.0394 38.1229C45.1368 38.2207 45.228 38.3237 45.3162 38.4284L38.474 45.2707C38.369 45.1828 38.2659 45.0916 38.1682 44.9938L29.1804 36.0054C30.0667 34.9484 29.9278 33.3728 28.8707 32.4869C27.9416 31.708 26.5873 31.709 25.6592 32.4888L24.379 31.2086L31.2571 24.3406L32.5377 25.6179ZM35.7692 17.5691L17.615 35.7197C17.4159 35.9185 17.3359 36.2072 17.4037 36.4802C18.5016 40.7918 15.8963 45.1772 11.5843 46.2747C7.27266 47.3727 2.88728 44.7673 1.78937 40.4553C0.691793 36.1437 3.29714 31.7583 7.60911 30.6604C8.91343 30.3286 10.28 30.3286 11.5843 30.6604C11.8572 30.7273 12.1453 30.6473 12.3448 30.4494L30.4946 12.2985C30.6935 12.0997 30.7735 11.811 30.705 11.5384C29.6147 7.27712 32.1851 2.93882 36.4464 1.84815C37.2516 1.6424 38.0845 1.56339 38.9141 1.61508L34.6927 5.83815C34.4784 6.05214 34.4033 6.36917 34.4991 6.65656L36.0994 11.4584C36.1794 11.6971 36.3671 11.8847 36.6061 11.9641L41.4079 13.5647C41.695 13.6605 42.012 13.5857 42.2263 13.3717L46.4477 9.15031C46.4573 9.30307 46.4622 9.45417 46.4622 9.60462C46.4846 14.0018 42.9384 17.5846 38.5411 17.6073C37.8613 17.6106 37.1838 17.527 36.5254 17.3585C36.2525 17.2903 35.9638 17.37 35.7649 17.5688H35.7692V17.5691Z" fill="#418AC3"/>
<path d="M41.4272 40.249L40.2954 41.3808L32.293 33.3784L33.4245 32.2466L41.4272 40.249Z" fill="#418AC3"/>
</g>
<defs>
<clipPath id="clip0">
<rect width="48" height="48" fill="white"/>
</clipPath>
</defs>
</svg>
