<svg width="48" height="48" viewBox="0 0 48 48" fill="none" xmlns="http://www.w3.org/2000/svg">
<path d="M11.25 22.5C10.6567 22.5 10.0766 22.6759 9.58329 23.0056C9.08994 23.3352 8.70543 23.8038 8.47836 24.352C8.2513 24.9001 8.19189 25.5033 8.30765 26.0853C8.4234 26.6672 8.70912 27.2018 9.12868 27.6213C9.54824 28.0409 10.0828 28.3266 10.6647 28.4424C11.2467 28.5581 11.8499 28.4987 12.3981 28.2717C12.9462 28.0446 13.4148 27.6601 13.7444 27.1667C14.0741 26.6734 14.25 26.0934 14.25 25.5C14.25 24.7044 13.9339 23.9413 13.3713 23.3787C12.8087 22.8161 12.0457 22.5 11.25 22.5ZM11.25 27C10.9533 27 10.6633 26.912 10.4166 26.7472C10.17 26.5824 9.97771 26.3481 9.86418 26.074C9.75065 25.7999 9.72095 25.4983 9.77882 25.2074C9.8367 24.9164 9.97956 24.6491 10.1893 24.4393C10.3991 24.2296 10.6664 24.0867 10.9574 24.0288C11.2483 23.9709 11.5499 24.0007 11.824 24.1142C12.0981 24.2277 12.3324 24.42 12.4972 24.6666C12.662 24.9133 12.75 25.2033 12.75 25.5C12.75 25.8978 12.592 26.2794 12.3107 26.5607C12.0294 26.842 11.6478 27 11.25 27Z" fill="#418AC3"/>
<path d="M46.425 25.9148L43.5 20.073V11.25C43.5 11.0511 43.421 10.8603 43.2803 10.7197C43.1397 10.579 42.9489 10.5 42.75 10.5H41.1532C41.7954 9.88016 42.2682 9.10619 42.5265 8.25185C42.7848 7.39751 42.82 6.49125 42.6288 5.61944C42.4376 4.74763 42.0263 3.9393 41.4341 3.2715C40.842 2.60369 40.0887 2.09865 39.246 1.8045C39.133 1.76528 39.0123 1.75363 38.8939 1.77055C38.7756 1.78746 38.6629 1.83243 38.5655 1.90171C38.468 1.971 38.3885 2.06259 38.3336 2.16884C38.2788 2.27508 38.2501 2.39292 38.25 2.5125V6H36.75V2.5125C36.7499 2.39292 36.7212 2.27508 36.6664 2.16884C36.6115 2.06259 36.532 1.971 36.4345 1.90171C36.3371 1.83243 36.2244 1.78746 36.1061 1.77055C35.9877 1.75363 35.867 1.76528 35.754 1.8045C34.9113 2.09865 34.158 2.60369 33.5659 3.2715C32.9737 3.9393 32.5624 4.74763 32.3712 5.61944C32.18 6.49125 32.2152 7.39751 32.4735 8.25185C32.7318 9.10619 33.2046 9.88016 33.8468 10.5H26.25V7.5H30C30.1989 7.5 30.3897 7.42098 30.5303 7.28033C30.671 7.13968 30.75 6.94891 30.75 6.75V2.25C30.75 2.05109 30.671 1.86032 30.5303 1.71967C30.3897 1.57902 30.1989 1.5 30 1.5H18C17.8011 1.5 17.6103 1.57902 17.4697 1.71967C17.329 1.86032 17.25 2.05109 17.25 2.25V6.75C17.25 6.94891 17.329 7.13968 17.4697 7.28033C17.6103 7.42098 17.8011 7.5 18 7.5H21.75V10.5H9.75C9.55109 10.5 9.36032 10.579 9.21967 10.7197C9.07902 10.8603 9 11.0511 9 11.25V19.5H5.25C5.11063 19.4999 4.97399 19.5387 4.85542 19.612C4.73686 19.6852 4.64105 19.7901 4.57875 19.9147L1.57875 25.9148C1.52685 26.0189 1.49989 26.1337 1.5 26.25V45.75C1.5 45.9489 1.57902 46.1397 1.71967 46.2803C1.86032 46.421 2.05109 46.5 2.25 46.5H45.75C45.9489 46.5 46.1397 46.421 46.2803 46.2803C46.421 46.1397 46.5 45.9489 46.5 45.75V26.25C46.5013 26.134 46.4756 26.0192 46.425 25.9148ZM44.5365 25.5H39.75V21H42.2865L44.5365 25.5ZM42 19.5H39.75V12H42V19.5ZM35.25 3.75V6.75C35.25 6.94891 35.329 7.13968 35.4697 7.28033C35.6103 7.42098 35.8011 7.5 36 7.5H39C39.1989 7.5 39.3897 7.42098 39.5303 7.28033C39.671 7.13968 39.75 6.94891 39.75 6.75V3.75C40.2926 4.15667 40.7147 4.703 40.9713 5.33073C41.2278 5.95846 41.3091 6.64404 41.2066 7.31436C41.104 7.98468 40.8214 8.6146 40.389 9.13693C39.9565 9.65926 39.3904 10.0544 38.751 10.2802C38.6046 10.3318 38.4777 10.4275 38.388 10.5542C38.2983 10.6809 38.25 10.8323 38.25 10.9875V25.5H36.75V10.9875C36.75 10.8323 36.7017 10.6809 36.612 10.5542C36.5223 10.4275 36.3954 10.3318 36.249 10.2802C35.6096 10.0544 35.0435 9.65926 34.611 9.13693C34.1786 8.6146 33.896 7.98468 33.7934 7.31436C33.6909 6.64404 33.7722 5.95846 34.0287 5.33073C34.2853 4.703 34.7074 4.15667 35.25 3.75V3.75ZM26.25 15H35.25V19.5H26.25V15ZM26.25 21H35.25V25.5H26.25V21ZM35.25 12V13.5H26.25V12H35.25ZM18.75 3H29.25V6H18.75V3ZM24.75 7.5V25.5H23.25V7.5H24.75ZM13.5 19.5V15H21.75V19.5H13.5ZM10.5 12H21.75V13.5H12.75C12.5511 13.5 12.3603 13.579 12.2197 13.7197C12.079 13.8603 12 14.0511 12 14.25V19.5H10.5V12ZM19.5 45H3V26.427L5.7135 21H16.7865L19.5 26.427V45ZM18.4635 21H21.75V25.5H20.7135L18.4635 21ZM21 45V27H45V45H21Z" fill="#418AC3"/>
</svg>
