<svg width="48" height="48" viewBox="0 0 48 48" fill="none" xmlns="http://www.w3.org/2000/svg">
<g clip-path="url(#clip0)">
<path d="M20 10.8002C11.1776 10.8002 4 17.9778 4 26.8002C4 35.6226 11.1776 42.8002 20 42.8002C28.8224 42.8002 36 35.6226 36 26.8002C36 17.9778 28.8224 10.8002 20 10.8002ZM34.4 26.8002C34.3995 29.0855 33.8508 31.3372 32.8 33.3666V20.2338C33.8508 22.2631 34.3995 24.5149 34.4 26.8002ZM16.8 12.7714C17.5784 12.5938 18.38 12.4866 19.2 12.441V41.161C18.3921 41.119 17.5892 41.0085 16.8 40.8306V12.7714ZM15.2 40.3602C14.3616 40.0626 13.56 39.693 12.8 39.2522V14.3482C13.56 13.9082 14.3616 13.5378 15.2 13.2402V40.3602ZM20.8 12.4402C21.6079 12.4821 22.4108 12.5927 23.2 12.7706V40.829C22.4216 41.0066 21.62 41.1138 20.8 41.1594V12.4394V12.4402ZM24.8 13.2402C25.6384 13.5378 26.44 13.9074 27.2 14.3482V39.2522C26.44 39.6922 25.6384 40.0626 24.8 40.3602V13.2402ZM7.2 20.2338V33.3602C6.184 31.3882 5.6 29.1602 5.6 26.7938C5.60059 24.508 6.14926 22.2557 7.2 20.2258V20.2338ZM8.8 35.8314V17.7602C9.504 16.8802 10.3136 16.1058 11.2 15.4186V38.1642C10.3136 37.4762 9.504 36.6946 8.8 35.8226V35.8314ZM28.8 38.173V15.4274C29.6878 16.1126 30.4932 16.8984 31.2 17.769V35.8306C30.4932 36.7015 29.6878 37.4875 28.8 38.173ZM33.6 43.6002H44.8V38.8002H33.6V43.6002ZM35.2 40.4002H43.2V42.0002H35.2V40.4002ZM40.8 6.0002H47.2C47.4122 6.0002 47.6157 5.91591 47.7657 5.76588C47.9157 5.61585 48 5.41237 48 5.2002C48 4.98802 47.9157 4.78454 47.7657 4.63451C47.6157 4.48448 47.4122 4.4002 47.2 4.4002H40.8C39.3136 4.4002 38.08 5.4242 37.7136 6.8002H36.08C36.4624 4.5338 38.4336 2.8002 40.8 2.8002H46.4C46.6122 2.8002 46.8157 2.71591 46.9657 2.56588C47.1157 2.41585 47.2 2.21237 47.2 2.0002C47.2 1.78802 47.1157 1.58454 46.9657 1.43451C46.8157 1.28448 46.6122 1.2002 46.4 1.2002H40.8C39.2425 1.20313 37.7394 1.7732 36.5717 2.80384C35.404 3.83448 34.6516 5.25513 34.4552 6.8002H0V46.8002H48V6.8002H39.4224C39.7 6.3242 40.2104 6.0002 40.8 6.0002ZM46.4 45.2002H1.6V8.4002H46.4V45.2002Z" fill="#418AC3"/>
</g>
<defs>
<clipPath id="clip0">
<rect width="48" height="48" fill="white"/>
</clipPath>
</defs>
</svg>
