<svg width="48" height="48" viewBox="0 0 48 48" fill="none" xmlns="http://www.w3.org/2000/svg">
<g clip-path="url(#clip0)">
<path d="M47.0008 10.9992C46.4471 10.9992 45.9988 11.4467 45.9988 11.999V19.9992H44.0008V17.999C44.0008 15.7937 42.2049 13.9993 39.9988 13.9993C38.8065 13.9993 37.7342 14.5243 36.9988 15.3587C36.2664 14.526 35.1941 13.9993 33.9988 13.9993C32.8064 13.9993 31.7342 14.5243 30.9987 15.3587C30.2664 14.526 29.1941 13.9993 27.9987 13.9993C26.8062 13.9993 25.7341 14.5243 24.9995 15.3587C24.2663 14.526 23.194 13.9993 21.9995 13.9993C20.8064 13.9993 19.7335 14.5243 18.9995 15.3587C18.2663 14.526 17.194 13.9993 15.9994 13.9993C14.8064 13.9993 13.7335 14.5243 12.9994 15.3587C12.2663 14.526 11.194 13.9993 9.99942 13.9993C8.13988 13.9993 6.57096 15.2758 6.12565 16.9994H3.00001C2.44688 16.9994 2.00026 17.4468 2.00026 17.9991V19.9994H0.999754C0.868458 19.9993 0.73844 20.0251 0.617128 20.0754C0.495816 20.1256 0.385589 20.1992 0.292744 20.292C0.1999 20.3849 0.126259 20.4951 0.0760283 20.6164C0.0257979 20.7377 -3.69196e-05 20.8677 3.95991e-08 20.999C3.95991e-08 21.5514 0.447471 21.9988 0.999754 21.9988H2.00026V23.999C2.00026 24.5522 2.44773 24.9988 3.00001 24.9988H6.00002V43.9997C6.00002 46.2044 7.79441 47.9988 9.99979 47.9988C11.1944 47.9988 12.2667 47.4714 12.9998 46.6394C13.7337 47.4714 14.8067 47.9988 15.9998 47.9988C17.1944 47.9988 18.2667 47.4714 18.9998 46.6394C19.7337 47.4714 20.8067 47.9988 21.9998 47.9988C23.1944 47.9988 24.2667 47.4714 24.9998 46.6394C25.7345 47.4714 26.8067 47.9988 27.9991 47.9988C29.1944 47.9988 30.2667 47.4714 30.9991 46.6394C31.7345 47.4714 32.8066 47.9988 33.9991 47.9988C35.1945 47.9988 36.2668 47.4714 36.9991 46.6394C37.7345 47.4714 38.8067 47.9988 39.9992 47.9988C42.2051 47.9988 44.0012 46.2044 44.0012 43.9997V21.9987H47.0012C47.2662 21.9983 47.5202 21.8929 47.7075 21.7054C47.8948 21.518 48 21.2639 48.0002 20.9989V11.9989C48 11.7339 47.8947 11.4798 47.7074 11.2923C47.5201 11.1049 47.266 10.9994 47.001 10.9991L47.0008 10.9992ZM6.00002 22.9992H3.99977V18.9987H6.00002V22.9992ZM12 43.9998C12 45.1014 11.1035 45.9978 9.99979 45.9978C8.89757 45.9978 8.00028 45.1014 8.00028 43.9998V17.999C8.00028 16.8967 8.89747 15.9988 9.99979 15.9988C11.1034 15.9987 12 16.8965 12 17.999V43.9997V43.9998ZM18.0001 43.9998C18 45.1014 17.1035 45.9978 15.9998 45.9978C14.8976 45.9978 14.0003 45.1014 14.0003 43.9998V17.999C14.0003 16.8967 14.8975 15.9988 15.9998 15.9988C17.1034 15.9987 18.0001 16.8965 18.0001 17.999V43.9997V43.9998ZM24.0001 43.9998C24.0001 45.1014 23.1037 45.9978 21.9998 45.9978C20.8976 45.9978 20.0003 45.1014 20.0003 43.9998V17.999C20.0003 16.8967 20.8975 15.9988 21.9998 15.9988C23.1036 15.9988 24.0001 16.8967 24.0001 17.999V43.9997V43.9998ZM30.0001 43.9998C30.0001 45.1014 29.1037 45.9978 27.9991 45.9978C26.8975 45.9978 26.0011 45.1014 26.0011 43.9998V17.999C26.0011 16.8967 26.8975 15.9988 27.9991 15.9988C29.1035 15.9988 30.0001 16.8967 30.0001 17.999V43.9997V43.9998ZM36.0001 43.9998C36.0001 45.1014 35.1037 45.9978 33.9991 45.9978C32.8976 45.9978 32.0011 45.1014 32.0011 43.9998V17.999C32.0011 16.8967 32.8976 15.9988 33.9991 15.9988C35.1035 15.9988 36.0001 16.8967 36.0001 17.999V43.9997V43.9998ZM42.0002 43.9998C42.0002 45.1014 41.1037 45.9978 39.9992 45.9978C38.8976 45.9978 38.0012 45.1014 38.0012 43.9998V17.999C38.0012 16.8967 38.8976 15.9988 39.9992 15.9988C41.1035 15.9988 42.0002 16.8967 42.0002 17.999V43.9997V43.9998ZM33.4567 9.71814C33.3337 9.29251 33.4098 8.98276 33.7087 8.68173C34.5202 7.86657 34.7896 6.80822 34.4645 5.69934C34.2478 4.95515 33.8259 4.42931 33.7731 4.3634C33.7703 4.3634 33.7703 4.36265 33.7703 4.36265V4.36124C33.5856 4.13999 33.3104 3.99871 32.9997 3.99871C32.4465 3.99871 32.0008 4.44684 32.0008 4.99921C32.0008 5.24165 32.0857 5.46422 32.2293 5.63719C32.2321 5.63934 32.4431 5.91262 32.5457 6.26119C32.6644 6.6706 32.5898 6.97238 32.2907 7.2705C31.4821 8.08407 31.2112 9.14973 31.5334 10.2703C31.7517 11.0299 32.1735 11.5675 32.2204 11.6269V11.6261C32.4051 11.8532 32.6848 11.999 32.9997 11.999C33.1309 11.9989 33.2608 11.973 33.3821 11.9228C33.5033 11.8725 33.6135 11.7989 33.7062 11.706C33.799 11.6132 33.8726 11.503 33.9227 11.3817C33.9729 11.2604 33.9987 11.1305 33.9987 10.9992C33.9987 10.7611 33.9166 10.543 33.7789 10.3716C33.7761 10.3688 33.5592 10.0823 33.4566 9.71814H33.4567ZM25.1866 9.05523C24.956 8.1331 25.1405 7.34944 25.7491 6.66019C26.8184 5.45081 27.1582 3.97002 26.7335 2.37336C26.4346 1.25417 25.8605 0.477072 25.796 0.392134V0.392697C25.6113 0.153165 25.3251 -0.00292969 24.9998 -0.00292969C24.4474 -0.00292969 23.9999 0.444541 23.9999 0.996824C23.9996 1.214 24.0706 1.42526 24.202 1.59814H24.2005C24.2049 1.60395 24.6217 2.17002 24.8143 2.94064C25.0443 3.86193 24.8597 4.64568 24.2503 5.33484C23.1816 6.54422 22.8427 8.0251 23.2675 9.62176C23.5649 10.741 24.1399 11.5181 24.2035 11.603L24.205 11.6015C24.3874 11.8424 24.6753 11.9971 24.9998 11.9971C25.5527 11.9971 26.001 11.5496 26.001 10.9974C26.001 10.771 25.9249 10.563 25.7989 10.396C25.7945 10.3902 25.3778 9.82417 25.1867 9.05429L25.1866 9.05523ZM17.7788 10.3715C17.7767 10.3687 17.5606 10.0822 17.4559 9.71805C17.3335 9.29242 17.409 8.98267 17.7085 8.68163C18.5208 7.86648 18.7888 6.80813 18.4643 5.69925C18.2468 4.95506 17.8268 4.43081 17.7706 4.36331L17.7691 4.36049V4.36124C17.5853 4.13999 17.3091 3.99871 17.0003 3.99871C16.735 3.99891 16.4807 4.10438 16.2931 4.29197C16.1055 4.47956 16 4.73393 15.9998 4.99921C15.9998 5.24165 16.0863 5.46422 16.2298 5.63719C16.2319 5.63934 16.4429 5.91262 16.5448 6.26119C16.6648 6.6706 16.5888 6.97238 16.2914 7.2705C15.4814 8.08407 15.2118 9.14973 15.5342 10.2703C15.7524 11.0299 16.1743 11.5675 16.2219 11.6269V11.6261C16.4057 11.8532 16.6855 11.999 17.0005 11.999C17.5536 11.999 18.0003 11.5515 18.0003 10.9992C18.0003 10.7611 17.9159 10.543 17.7784 10.3716H17.7791L17.7788 10.3715Z" fill="#418AC3"/>
</g>
<defs>
<clipPath id="clip0">
<rect width="48" height="48" fill="white"/>
</clipPath>
</defs>
</svg>
