<svg width="48" height="48" viewBox="0 0 48 48" fill="none" xmlns="http://www.w3.org/2000/svg">
<g clip-path="url(#clip0)">
<path d="M46.6589 2.98125H46.012V0.745313C46.012 0.647358 45.9927 0.550364 45.9552 0.459878C45.9177 0.369391 45.8627 0.287187 45.7934 0.217966C45.7241 0.148745 45.6418 0.0938651 45.5513 0.0564648C45.4607 0.0190645 45.3637 -0.000122624 45.2658 5.89677e-07H39.5018C39.3042 5.89677e-07 39.1146 0.0785243 38.9748 0.218298C38.835 0.358071 38.7565 0.547644 38.7565 0.745313V2.98125H37.9128C37.7151 2.98125 37.5255 3.05977 37.3858 3.19955C37.246 3.33932 37.1675 3.52889 37.1675 3.72656V6.1125C37.1675 6.31017 37.246 6.49974 37.3858 6.63952C37.5255 6.77929 37.7151 6.85781 37.9128 6.85781H38.7565V9.09375C38.7565 9.19163 38.7758 9.28854 38.8133 9.37897C38.8507 9.46939 38.9056 9.55156 38.9748 9.62077C39.044 9.68997 39.1262 9.74487 39.2166 9.78233C39.307 9.81979 39.404 9.83906 39.5018 9.83906C39.5997 9.83906 39.6966 9.81979 39.7871 9.78233C39.8775 9.74487 39.9596 9.68997 40.0289 9.62077C40.0981 9.55156 40.153 9.46939 40.1904 9.37897C40.2279 9.28854 40.2472 9.19163 40.2472 9.09375V6.85688H44.5214V17.6394C44.5214 22.1603 40.8434 25.8382 36.3227 25.8382H30.7078V21.3661H36.5214C38.5764 21.3661 40.2482 19.6943 40.2482 17.6393V13.0678C40.2482 12.8701 40.1697 12.6806 40.0299 12.5408C39.8901 12.401 39.7005 12.3225 39.5029 12.3225C39.3052 12.3225 39.1156 12.401 38.9759 12.5408C38.8361 12.6806 38.7576 12.8701 38.7576 13.0678V17.6392C38.7576 18.8722 37.7544 19.8752 36.5216 19.8752H30.708V18.8317C30.708 18.6341 30.6295 18.4445 30.4897 18.3047C30.3499 18.165 30.1604 18.0864 29.9627 18.0864H27.5777C27.38 18.0864 27.1904 18.165 27.0507 18.3047C26.9109 18.4445 26.8324 18.6341 26.8324 18.8317V19.8752H25.1433V14.6081H25.943C26.2683 15.7538 27.3232 16.5956 28.5717 16.5956C30.0786 16.5956 31.3045 15.3697 31.3045 13.8628C31.3045 12.356 30.0785 11.13 28.5717 11.13C27.3232 11.13 26.2683 11.9719 25.943 13.1175H22.8527C22.5274 11.9719 21.4724 11.13 20.2239 11.13C18.7171 11.13 17.4911 12.356 17.4911 13.8628C17.4911 15.3697 18.7172 16.5956 20.2239 16.5956C21.4724 16.5956 22.5274 15.7538 22.8527 14.6081H23.6524V19.8752H21.963V18.8317C21.963 18.6341 21.8845 18.4445 21.7447 18.3047C21.6049 18.165 21.4154 18.0864 21.2177 18.0864H18.8327C18.635 18.0864 18.4454 18.165 18.3057 18.3047C18.1659 18.4445 18.0874 18.6341 18.0874 18.8317V19.8752H11.8762C6.53241 19.8752 2.18672 24.2218 2.18672 29.5646V32.9434C2.18672 33.141 2.26524 33.3306 2.40502 33.4704C2.54479 33.6102 2.73436 33.6887 2.93203 33.6887C3.1297 33.6887 3.31927 33.6102 3.45905 33.4704C3.59882 33.3306 3.67734 33.141 3.67734 32.9434V29.5646C3.67734 25.0438 7.35534 21.3659 11.8761 21.3659H18.0873V25.8375H11.6773C9.62231 25.8375 7.95056 27.5092 7.95056 29.5642V40.9432H3.67734V36.9183C3.67734 36.7206 3.59882 36.531 3.45905 36.3913C3.31927 36.2515 3.1297 36.173 2.93203 36.173C2.73436 36.173 2.54479 36.2515 2.40502 36.3913C2.26524 36.531 2.18672 36.7206 2.18672 36.9183V40.9432H1.34297C1.1453 40.9432 0.955726 41.0217 0.815953 41.1615C0.67618 41.3012 0.597656 41.4908 0.597656 41.6885V44.0735C0.597656 44.2711 0.67618 44.4607 0.815953 44.6005C0.955726 44.7403 1.1453 44.8188 1.34297 44.8188H2.18672V47.0547C2.18672 47.2524 2.26524 47.442 2.40502 47.5817C2.54479 47.7215 2.73436 47.8 2.93203 47.8H8.69597C8.89364 47.8 9.08321 47.7215 9.22298 47.5817C9.36276 47.442 9.44128 47.2524 9.44128 47.0547V44.8188H10.0882C10.2858 44.8188 10.4754 44.7403 10.6152 44.6005C10.7549 44.4607 10.8335 44.2711 10.8335 44.0735V41.6885C10.8335 41.4908 10.7549 41.3012 10.6152 41.1615C10.4754 41.0217 10.2858 40.9432 10.0882 40.9432H9.44128V29.5652C9.44128 28.3322 10.4444 27.3293 11.6772 27.3293H18.0872V28.3727C18.0872 28.5704 18.1657 28.7599 18.3055 28.8997C18.4453 29.0395 18.6348 29.118 18.8325 29.118H21.2175C21.4152 29.118 21.6047 29.0395 21.7445 28.8997C21.8843 28.7599 21.9628 28.5704 21.9628 28.3727V27.3293H26.8324V28.3727C26.8324 28.5704 26.9109 28.7599 27.0507 28.8997C27.1904 29.0395 27.38 29.118 27.5777 29.118H29.9627C30.1604 29.118 30.3499 29.0395 30.4897 28.8997C30.6295 28.7599 30.708 28.5704 30.708 28.3727V27.3293H36.3229C41.6666 27.3293 46.0123 22.9826 46.0123 17.6398V6.85716H46.6592C46.8568 6.85716 47.0464 6.77863 47.1862 6.63886C47.326 6.49909 47.4045 6.30951 47.4045 6.11184V3.72684C47.4045 3.62897 47.3852 3.53205 47.3478 3.44162C47.3103 3.35119 47.2555 3.26902 47.1863 3.1998C47.1171 3.13058 47.0349 3.07567 46.9445 3.03821C46.8541 3.00074 46.7571 2.98145 46.6593 2.98144L46.6589 2.98125ZM28.571 12.6211C28.9003 12.6216 29.216 12.7526 29.4489 12.9855C29.6817 13.2183 29.8128 13.534 29.8132 13.8634C29.8132 14.5484 29.256 15.1056 28.5711 15.1056C28.2418 15.1051 27.9261 14.974 27.6932 14.7412C27.4604 14.5083 27.3294 14.1927 27.3289 13.8634C27.3293 13.5341 27.4604 13.2184 27.6932 12.9855C27.9261 12.7526 28.2417 12.6216 28.5711 12.6211H28.571ZM20.2231 15.1055C19.8938 15.105 19.5781 14.974 19.3452 14.7411C19.1124 14.5083 18.9813 14.1926 18.9808 13.8633C18.9813 13.534 19.1123 13.2182 19.3452 12.9854C19.5781 12.7525 19.8938 12.6215 20.2231 12.621C20.9081 12.621 21.4653 13.1782 21.4653 13.8632C21.4653 14.5481 20.9081 15.1054 20.2231 15.1054V15.1055ZM7.94981 46.3106H3.67669V44.82H7.95V46.3106H7.94981ZM9.34106 43.3294H2.08641V42.435H9.34106V43.3294ZM20.4717 27.6274H19.5773V19.5778H20.4717V27.6275V27.6274ZM26.8319 25.8386H21.9623V21.3656H26.8319V25.8377V25.8386ZM29.2169 27.6274H28.3225V19.5778H29.2169V27.6275V27.6274ZM40.248 1.49063H44.5214V2.98125H40.2481V1.49063H40.248ZM45.9126 5.36625H38.6579V4.47188H45.9126V5.36625ZM28.2779 34.9523C28.1779 34.7817 28.0142 34.658 27.8229 34.6081C27.6317 34.5583 27.4284 34.5865 27.2579 34.6865C27.0874 34.7865 26.9636 34.9501 26.9138 35.1414C26.8639 35.3327 26.8921 35.536 26.9921 35.7065C29.1008 39.3008 29.4156 40.8733 29.4156 41.4907C29.4156 44.258 27.1642 46.5093 24.3969 46.5093C21.6296 46.5093 19.3783 44.258 19.3783 41.4907C19.3783 39.3472 22.5846 34.2702 24.3952 31.6537L25.3639 33.0932C25.4175 33.175 25.4868 33.2455 25.5677 33.3006C25.6486 33.3557 25.7396 33.3943 25.8354 33.4142C25.9313 33.4341 26.0301 33.4349 26.1262 33.4167C26.2224 33.3984 26.314 33.3614 26.3959 33.3077C26.7401 33.082 26.8361 32.6198 26.6104 32.2764C25.7097 30.9032 25.0288 29.9627 25.0002 29.9233C24.7075 29.5198 24.0862 29.5198 23.7935 29.9233C23.1891 30.7577 17.8876 38.1623 17.8876 41.4914C17.8876 45.0807 20.8076 48.0007 24.3969 48.0007C27.9862 48.0007 30.9063 45.0807 30.9063 41.4914C30.9063 40.1065 30.0466 37.9677 28.2778 34.953L28.2779 34.9523ZM26.2207 36.1592C26.0123 35.8041 25.5558 35.6852 25.2007 35.8934C25.1163 35.9429 25.0425 36.0086 24.9834 36.0867C24.9244 36.1647 24.8813 36.2536 24.8566 36.3484C24.8319 36.4431 24.8261 36.5417 24.8396 36.6387C24.853 36.7356 24.8854 36.829 24.935 36.9134C26.9565 40.3594 27.0286 41.4547 27.0306 41.4906C27.0306 42.9437 25.8491 44.1249 24.3962 44.1249C24.1985 44.1249 24.0089 44.2035 23.8692 44.3432C23.7294 44.483 23.6509 44.6726 23.6509 44.8703C23.6509 45.0679 23.7294 45.2575 23.8692 45.3973C24.0089 45.537 24.1985 45.6156 24.3962 45.6156C26.6703 45.6156 28.5204 43.7654 28.5204 41.4913C28.5204 41.1607 28.3545 39.7988 26.2198 36.16L26.2207 36.1592Z" fill="#418AC3"/>
</g>
<defs>
<clipPath id="clip0">
<rect width="48" height="48" fill="white"/>
</clipPath>
</defs>
</svg>
