<svg width="51" height="48" viewBox="0 0 51 48" fill="none" xmlns="http://www.w3.org/2000/svg">
<path d="M48.45 0H2.55C1.14232 0.00140625 0.00149414 1.07513 0 2.4V45.6C0.00149414 46.9249 1.14232 47.9986 2.55 48H48.45C49.8577 47.9986 50.9985 46.9249 51 45.6V2.4C50.9985 1.07513 49.8577 0.00140625 48.45 0ZM49.3 45.6C49.2995 46.0406 48.9193 46.3997 48.45 46.4H2.55C2.08184 46.3995 1.70033 46.0417 1.70003 45.6V2.4C1.70053 1.95938 2.08074 1.60031 2.55 1.60003H48.45C48.9182 1.6005 49.2997 1.95834 49.3 2.4V45.6V45.6ZM46.75 35.2C46.6383 35.2 46.5278 35.2207 46.4246 35.2609C46.3215 35.3011 46.2278 35.36 46.1488 35.4343C45.9894 35.5843 45.8998 35.7878 45.8998 36.0001V42.4001C45.8993 42.8408 45.519 43.1998 45.0498 43.2001H38.25C37.7805 43.2001 37.4 43.5582 37.4 44.0001C37.4 44.4419 37.7805 44.8 38.25 44.8H45.05C46.4577 44.7986 47.5985 43.7249 47.6 42.4V36C47.6001 35.8949 47.5781 35.7909 47.5354 35.6938C47.4927 35.5967 47.4301 35.5085 47.3511 35.4342C47.2722 35.3599 47.1785 35.301 47.0753 35.2608C46.9722 35.2206 46.8616 35.2 46.75 35.2V35.2ZM12.75 43.2H5.94997C5.4818 43.1995 5.1003 42.8416 5.1 42.4V36C5.1 35.5582 4.71949 35.2 4.25003 35.2C3.78057 35.2 3.40007 35.5582 3.40007 36V42.4C3.40156 43.7249 4.54239 44.7986 5.95007 44.8H12.75C13.2195 44.8 13.6 44.4419 13.6 44.0001C13.6 43.5582 13.2195 43.2 12.75 43.2V43.2ZM45.05 3.19997H38.25C37.7805 3.19997 37.4 3.55809 37.4 3.99994C37.4 4.44178 37.7805 4.8 38.25 4.8H45.05C45.5182 4.80047 45.8997 5.15831 45.9 5.59997V12C45.9 12.4418 46.2805 12.8 46.75 12.8C47.2194 12.8 47.5999 12.4418 47.5999 12V5.59997C47.5984 4.27509 46.4577 3.20147 45.0499 3.19997H45.05ZM4.25003 12.8C4.36167 12.8 4.47223 12.7793 4.57538 12.7391C4.67852 12.6989 4.77224 12.64 4.85118 12.5657C5.01055 12.4157 5.1002 12.2123 5.1002 11.9999V5.59997C5.1007 5.15934 5.48091 4.80028 5.95017 4.8H12.75C13.2195 4.8 13.6 4.44187 13.6 4.00003C13.6 3.55819 13.2195 3.20006 12.75 3.20006H5.94997C4.54229 3.20147 3.40146 4.27519 3.39997 5.60006V12C3.39993 12.1051 3.42189 12.2091 3.4646 12.3062C3.5073 12.4033 3.56992 12.4915 3.64886 12.5658C3.72781 12.6401 3.82154 12.699 3.92469 12.7392C4.02784 12.7794 4.13839 12.8 4.25003 12.8V12.8ZM25.5 3.19997C13.2945 3.19997 3.39997 12.5124 3.39997 24C3.39997 35.4876 13.2945 44.8 25.5 44.8C37.7055 44.8 47.6 35.4876 47.6 24C47.5864 12.5178 37.6999 3.21281 25.5 3.19997ZM29.5547 5.18213C29.0066 6.85716 27.3633 7.99997 25.5 7.99997C23.6367 7.99997 21.9934 6.85622 21.4453 5.18203C24.1213 4.67259 26.8787 4.67259 29.5547 5.18213V5.18213ZM21.4453 42.8179C21.9934 41.1428 23.6367 39.9999 25.5 39.9999C27.3633 39.9999 29.0066 41.1437 29.5547 42.8179C26.8787 43.3274 24.1213 43.3274 21.4453 42.8179ZM31.204 42.4307C30.4667 40.0425 28.1421 38.4 25.5 38.4C22.8579 38.4 20.5333 40.0425 19.796 42.4306C11.0883 40.0455 5.1 32.5354 5.1 24C5.1 15.4646 11.0883 7.9545 19.796 5.56941C20.5333 7.9575 22.8579 9.6 25.5 9.6C28.1421 9.6 30.4667 7.9575 31.204 5.56941C39.9117 7.9545 45.9 15.4646 45.9 24C45.9 32.5354 39.9118 40.0455 31.2041 42.4306L31.204 42.4307ZM39.4091 12.2535C39.3641 12.2138 39.3146 12.1788 39.2615 12.1493C39.1929 12.0866 39.1033 12.0481 39.0079 12.0406C38.946 12.0216 38.8819 12.0094 38.8171 12.0044C38.8091 12.0042 38.8023 12.0001 38.7942 12.0001H27.2C27.0884 12.0001 26.9778 12.0207 26.8747 12.0609C26.7715 12.1011 26.6778 12.1601 26.5989 12.2344C26.4395 12.3844 26.3499 12.5878 26.3499 12.8002V16.0001C26.3498 16.1052 26.3718 16.2092 26.4145 16.3063C26.4572 16.4034 26.5198 16.4916 26.5988 16.5659C26.7582 16.7159 26.9743 16.8003 27.1999 16.8003H41.1918C41.2918 16.7981 41.3906 16.7793 41.4837 16.7447L41.5475 16.7213C41.564 16.714 41.5813 16.7111 41.5977 16.7028C41.628 16.6821 41.6568 16.6594 41.6838 16.6349C41.733 16.604 41.7785 16.568 41.8196 16.5278C41.8847 16.4474 41.9397 16.3603 41.9837 16.2681C42.0015 16.2149 42.0133 16.1602 42.0187 16.1047C42.0288 16.0705 42.0362 16.0357 42.041 16.0005C42.041 15.9871 42.0337 15.9761 42.0331 15.9627C42.0163 15.8574 41.9882 15.754 41.9493 15.654C41.9433 15.6423 41.9441 15.6292 41.9373 15.6176C41.2402 14.4141 40.3984 13.2901 39.4284 12.2677C39.4227 12.2616 39.4147 12.2595 39.4091 12.2538V12.2535ZM28.05 15.2V13.5999H38.3991C38.8605 14.1081 39.2883 14.6424 39.6801 15.2H28.05ZM23.8 12H12.2058C12.1979 12 12.1909 12.0041 12.1829 12.0043C12.1182 12.0094 12.0543 12.0215 11.9925 12.0404C11.9476 12.0477 11.9035 12.0582 11.8604 12.0719C11.7673 12.1281 11.6774 12.1887 11.5908 12.2535C11.5852 12.2591 11.5772 12.2612 11.5716 12.2671C10.6016 13.2895 9.75976 14.4136 9.06266 15.6171C9.05589 15.6287 9.05668 15.6416 9.05071 15.6534C9.01179 15.7534 8.98373 15.8569 8.96694 15.9622C8.96624 15.9753 8.95897 15.9865 8.95897 15.9999C8.96386 16.0351 8.97131 16.0699 8.98128 16.1041C8.98676 16.1596 8.99851 16.2143 9.01634 16.2675C9.06031 16.3597 9.11536 16.4469 9.1804 16.5273C9.22146 16.5674 9.26698 16.6033 9.31617 16.6343C9.34317 16.6588 9.37196 16.6815 9.40233 16.7022C9.41856 16.7116 9.4362 16.7135 9.45253 16.7207C9.47245 16.7299 9.49437 16.7366 9.51628 16.7441C9.6093 16.7788 9.70812 16.7976 9.80814 16.7997H23.8C23.9116 16.7998 24.0222 16.7791 24.1253 16.7389C24.2285 16.6987 24.3222 16.6397 24.4011 16.5654C24.5605 16.4154 24.6501 16.212 24.6501 15.9997V12.7997C24.6502 12.6946 24.6282 12.5906 24.5855 12.4935C24.5428 12.3964 24.4802 12.3082 24.4012 12.2339C24.2418 12.0841 24.0257 11.9998 23.8001 11.9999L23.8 12ZM22.95 15.2H11.3199C11.7117 14.6424 12.1395 14.1081 12.6009 13.5999H22.95V15.2ZM23.8 18.4H8.39787C8.38273 18.4 8.36998 18.4075 8.35503 18.4081C8.29596 18.4131 8.23765 18.4242 8.18112 18.4411C7.97124 18.4786 7.79085 18.604 7.69104 18.7818C7.65676 18.8284 7.62809 18.8784 7.60557 18.9309C7.60059 18.9442 7.58924 18.9534 7.58486 18.9671C7.23362 20.0616 7.00045 21.1865 6.88888 22.325C6.88759 22.3381 6.89387 22.3497 6.89317 22.3627C6.89247 22.3758 6.8852 22.3867 6.8852 22.4C6.8903 22.4402 6.89882 22.4801 6.9107 22.519C6.91621 22.5719 6.92739 22.624 6.94407 22.6747C6.96528 22.722 6.99148 22.7672 7.02226 22.8096C7.06988 22.9021 7.14528 22.9795 7.23911 23.0322C7.27948 23.0636 7.32298 23.0912 7.369 23.1146C7.42277 23.1359 7.47876 23.1518 7.53605 23.1621C7.57589 23.1763 7.61573 23.1877 7.65558 23.196C7.68193 23.1988 7.70844 23.2001 7.73497 23.1998H23.8002C23.9118 23.1999 24.0224 23.1792 24.1255 23.139C24.2287 23.0988 24.3224 23.0399 24.4013 22.9656C24.5607 22.8156 24.6503 22.6121 24.6503 22.3998V19.2C24.6504 19.0949 24.6284 18.9909 24.5857 18.8938C24.543 18.7967 24.4804 18.7085 24.4014 18.6342C24.2419 18.4842 24.0256 18.4 23.8001 18.4H23.8ZM22.95 21.6H8.71582C8.80109 21.0612 8.91673 20.5271 9.06246 20H22.95V21.6ZM26.5989 18.6342C26.4395 18.7842 26.3499 18.9877 26.3499 19.2V22.4C26.3498 22.505 26.3718 22.6091 26.4145 22.7062C26.4572 22.8033 26.5198 22.8915 26.5988 22.9658C26.7582 23.1158 26.9743 23.2001 27.1999 23.2001H43.2653C43.2919 23.2004 43.3184 23.1991 43.3447 23.1963C43.3846 23.1869 43.4244 23.1775 43.4643 23.1623C43.5215 23.1521 43.5775 23.1362 43.6313 23.1149C43.6773 23.0914 43.7208 23.0638 43.7612 23.0325C43.855 22.9797 43.9303 22.9024 43.978 22.8098C44.0088 22.7675 44.035 22.7223 44.0562 22.675C44.073 22.6244 44.0841 22.5721 44.0896 22.5194C44.1015 22.4804 44.1101 22.4406 44.1151 22.4003C44.1151 22.3872 44.1078 22.3762 44.1071 22.3631C44.1064 22.3501 44.1127 22.3385 44.1114 22.3253C43.9999 21.1869 43.7668 20.0619 43.4153 18.9675C43.411 18.9538 43.3997 18.9446 43.3946 18.9314C43.3719 18.8784 43.3428 18.828 43.3084 18.781C43.2582 18.6929 43.1877 18.6166 43.102 18.5576C43.0162 18.4986 42.9175 18.4586 42.8131 18.4403C42.7587 18.4243 42.7026 18.4137 42.6459 18.4086C42.6306 18.4076 42.6178 18.4003 42.6023 18.4003H27.2C26.9745 18.4001 26.7584 18.4844 26.5989 18.6344V18.6342ZM28.05 20H41.9385C42.0841 20.5272 42.1998 21.0612 42.2852 21.6H28.05V20V20ZM23.8 24.8H7.73507C7.72212 24.8 7.71076 24.8068 7.69781 24.8075C7.68317 24.8084 7.67012 24.8022 7.65538 24.804C7.60698 24.8133 7.55959 24.8267 7.51383 24.8442C7.46308 24.8542 7.41335 24.8683 7.36522 24.8864C7.30246 24.9183 7.24437 24.9578 7.19239 25.0038C7.16254 25.0214 7.13392 25.0408 7.10673 25.0619C7.10235 25.0664 7.10135 25.0727 7.09717 25.0773C7.04273 25.1401 6.99882 25.2104 6.96698 25.2858C6.95702 25.3092 6.9366 25.3284 6.92713 25.3527C6.89058 25.4565 6.87722 25.5663 6.88789 25.6751C6.99945 26.8135 7.23254 27.9385 7.58386 29.033C7.61078 29.116 7.65182 29.1943 7.70538 29.2649C7.73589 29.2997 7.76955 29.332 7.80599 29.3613C7.8328 29.3908 7.86194 29.4184 7.89315 29.4438C7.93519 29.4691 7.97952 29.4909 8.02563 29.5088C8.05906 29.5279 8.09388 29.5447 8.12982 29.5592C8.21578 29.5862 8.30583 29.6 8.39647 29.6001H23.7991C23.9107 29.6001 24.0213 29.5794 24.1244 29.5392C24.2276 29.499 24.3213 29.4401 24.4002 29.3658C24.5596 29.2158 24.6492 29.0123 24.6492 28.8V25.6C24.6493 25.495 24.6273 25.3909 24.5846 25.2938C24.5419 25.1967 24.4793 25.1085 24.4003 25.0343C24.2408 24.8843 24.0246 24.8001 23.7992 24.8001L23.8 24.8ZM22.95 28H9.06146L8.94791 27.5695C8.87818 27.288 8.81543 27.0047 8.76313 26.7164C8.74321 26.6119 8.73166 26.5053 8.71482 26.4H22.949V27.9999L22.95 28ZM44.0894 25.481C44.0839 25.4281 44.0727 25.3759 44.056 25.3252C44.0348 25.2778 44.0086 25.2326 43.9778 25.1903C43.9302 25.0977 43.8549 25.0204 43.7612 24.9676C43.7207 24.9363 43.6772 24.9087 43.6312 24.8852C43.5774 24.8639 43.5213 24.8481 43.4641 24.8378C43.4253 24.8236 43.3854 24.8123 43.3447 24.8039C43.3304 24.8022 43.3176 24.8082 43.3034 24.8073C43.2899 24.8066 43.2785 24.8 43.265 24.8H27.2C27.0884 24.7999 26.9778 24.8206 26.8747 24.8608C26.7715 24.901 26.6778 24.9599 26.5989 25.0343C26.4395 25.1843 26.3499 25.3877 26.3499 25.6V28.8C26.3498 28.9051 26.3718 29.0091 26.4145 29.1062C26.4572 29.2033 26.5198 29.2915 26.5988 29.3658C26.7582 29.5158 26.9743 29.6002 27.1999 29.6002H42.6025C42.7054 29.5986 42.8071 29.5792 42.9026 29.5431C42.9333 29.5305 42.9631 29.5161 42.9919 29.4999C43.0514 29.4713 43.107 29.4362 43.1575 29.3949C43.2337 29.3321 43.2966 29.2561 43.3427 29.1712C43.3619 29.1402 43.3788 29.108 43.3932 29.0749C43.3992 29.0599 43.4102 29.0483 43.4151 29.033C43.7665 27.9385 43.9997 26.8136 44.1112 25.6751C44.1125 25.662 44.1062 25.6504 44.1069 25.6373C44.1076 25.6243 44.1149 25.6133 44.1149 25.6001C44.1097 25.5598 44.1012 25.52 44.0893 25.481H44.0894ZM41.9385 28H28.05V26.4H42.2842C42.199 26.9388 42.0833 27.4729 41.9376 28H41.9385ZM23.8 31.2H9.80903C9.79509 31.2 9.78363 31.2068 9.76989 31.2075C9.65772 31.2232 9.54755 31.2497 9.44108 31.2864C9.42853 31.2921 9.41468 31.2914 9.40123 31.2977C9.37093 31.3184 9.34221 31.341 9.31527 31.3655C9.26606 31.3965 9.22052 31.4325 9.1794 31.4726C9.11434 31.553 9.05929 31.6402 9.01535 31.7324C8.99746 31.7855 8.9857 31.8403 8.98028 31.8958C8.97024 31.93 8.96275 31.9648 8.95787 32C8.95787 32.0134 8.96524 32.0243 8.96584 32.0377C8.98264 32.143 9.01068 32.2464 9.04951 32.3464C9.05549 32.3582 9.05479 32.3711 9.06146 32.3827C9.75857 33.5862 10.6004 34.7103 11.5704 35.7327C11.5758 35.7383 11.5836 35.74 11.5891 35.7455C11.6537 35.8071 11.7286 35.8584 11.8109 35.8972C11.8314 35.9066 11.8477 35.9254 11.8689 35.9341C11.9748 35.9774 12.0891 35.9999 12.2046 36H23.7987C23.9103 36 24.0209 35.9794 24.124 35.9392C24.2272 35.899 24.3209 35.84 24.3998 35.7657C24.5592 35.6157 24.6488 35.4123 24.6488 35.1999V31.9999C24.6489 31.8948 24.6269 31.7908 24.5842 31.6937C24.5415 31.5967 24.4789 31.5085 24.3999 31.4342C24.321 31.3599 24.2273 31.301 24.1242 31.2608C24.021 31.2206 23.9105 31.2 23.7989 31.2H23.8ZM22.95 34.4H12.6009C12.1395 33.8918 11.7117 33.3575 11.3199 32.7999H22.95V34.4ZM41.9836 31.7325C41.9396 31.6403 41.8846 31.5531 41.8195 31.4727C41.7784 31.4324 41.7328 31.3966 41.6836 31.3656C41.6567 31.3411 41.628 31.3184 41.5977 31.2978C41.5852 31.2914 41.5715 31.2922 41.5578 31.2865C41.4513 31.2497 41.341 31.2233 41.2287 31.2076C41.2152 31.207 41.2038 31.2003 41.1889 31.2003H27.2C27.0884 31.2002 26.9778 31.2209 26.8747 31.2611C26.7715 31.3013 26.6778 31.3603 26.5989 31.4346C26.4395 31.5846 26.3499 31.788 26.3499 32.0003V35.2003C26.3498 35.3054 26.3718 35.4094 26.4145 35.5065C26.4572 35.6036 26.5198 35.6918 26.5988 35.7661C26.7582 35.9161 26.9743 36.0005 27.1999 36.0005H38.7941C38.9096 36.0003 39.0239 35.978 39.1298 35.9345C39.1503 35.9251 39.166 35.9087 39.1859 35.8988C39.2688 35.8597 39.3444 35.8081 39.4096 35.746C39.415 35.7406 39.4228 35.7389 39.4282 35.7333C40.3982 34.7108 41.24 33.5868 41.9371 32.3833C41.9439 32.3716 41.9431 32.3587 41.9491 32.3469C41.9879 32.247 42.016 32.1436 42.0328 32.0383C42.0335 32.0252 42.0407 32.0139 42.0407 32.0005C42.0358 31.9653 42.0283 31.9305 42.0184 31.8963C42.0129 31.8408 42.0011 31.786 41.9833 31.7328L41.9836 31.7325ZM38.3991 34.4001H28.05V32.8H39.6801C39.2883 33.3576 38.8605 33.8919 38.3991 34.4001V34.4001Z" fill="#418AC3"/>
</svg>
