<svg width="51" height="48" viewBox="0 0 51 48" fill="none" xmlns="http://www.w3.org/2000/svg">
<path d="M50.15 33.6H39.95V28.8H50.15C50.66 28.8 51 28.48 51 28C51 27.52 50.66 27.2001 50.15 27.2001H39.95V24.8001C39.95 24.3201 39.6101 24.0001 39.1001 24.0001H31.365V20.0401C35.4097 18.4976 38.25 14.7717 38.25 10.4C38.25 4.63997 33.32 0 27.2 0C21.08 0 16.15 4.63997 16.15 10.4C16.15 14.7411 18.9505 18.4456 22.95 20.0075V24H15.3C14.79 24 14.45 24.32 14.45 24.8V27.2225C6.4264 27.6362 0 33.8657 0 41.44V47.2C0 47.68 0.339967 48 0.849967 48C1.35997 48 1.69993 47.68 1.69993 47.2V41.44C1.69993 34.72 7.3949 29.2 14.4499 28.8V33.44C10.1999 33.92 6.79993 37.28 6.79993 41.4399V47.1999C6.79993 47.6799 7.1399 47.9999 7.6499 47.9999C8.1599 47.9999 8.49987 47.6799 8.49987 47.1999V41.4399C8.49987 38.1909 11.1074 35.4892 14.4498 35.0931V37.6009C14.4498 38.0809 14.7898 38.4008 15.2998 38.4008H39.0997C39.6097 38.4008 39.9496 38.0809 39.9496 37.6009V35.2009H50.1496C50.6596 35.2009 50.9996 34.8809 50.9996 34.4009C50.9996 33.9209 50.6609 33.6009 50.1499 33.6009L50.15 33.6ZM17.8891 11.2H18.7C19.21 11.2 19.5499 10.8801 19.5499 10.4001C19.5499 9.92006 19.21 9.60009 18.7 9.60009H17.8891C18.2975 5.36634 21.9126 2.02003 26.35 1.63725V2.4C26.35 2.88 26.6899 3.19997 27.1999 3.19997C27.7099 3.19997 28.05 2.88 28.05 2.4V1.63612C32.5527 2.01366 36.1104 5.36213 36.5116 9.6H35.7C35.19 9.6 34.85 9.91997 34.85 10.4C34.85 10.88 35.19 11.1999 35.7 11.1999H36.5108C36.1528 14.911 33.3313 17.9401 29.6514 18.8893L29.5036 18.9268L29.4744 18.9336C29.0062 19.0418 28.5301 19.1172 28.05 19.1592V18.4C28.05 17.92 27.71 17.6001 27.2 17.6001C26.69 17.6001 26.3501 17.92 26.3501 18.4V19.1629C21.9127 18.7801 18.2976 15.4339 17.8892 11.2H17.8891ZM24.65 20.5233C25.4682 20.704 26.3218 20.8 27.2 20.8C28.0783 20.8 28.9318 20.704 29.75 20.5233V24H24.65V20.5233V20.5233ZM38.25 36.8H16.15V25.5999H38.25V36.8V36.8ZM34 28H20.4C19.89 28 19.55 28.32 19.55 28.8V33.6C19.55 34.08 19.89 34.4 20.4 34.4H34C34.51 34.4 34.8499 34.08 34.8499 33.6V28.8C34.85 28.32 34.51 28 34 28ZM33.15 32.8H21.25V29.6001H33.15V32.8V32.8ZM29.24 12.72C29.495 12.64 29.6651 12.48 29.75 12.24L31.4501 7.44C31.535 7.2 31.4501 6.88003 31.1951 6.64003C31.025 6.48 30.6851 6.40003 30.3451 6.48L25.2451 8.08003C24.9901 8.16 24.8201 8.32003 24.7351 8.56003L23.0351 13.36C22.865 13.6 22.9501 13.92 23.2051 14.16C23.3751 14.32 23.5451 14.4 23.8001 14.4C23.885 14.4 23.9701 14.4 24.14 14.32L29.24 12.72V12.72ZM26.18 9.43997L29.24 8.47997L28.22 11.36L25.16 12.32L26.18 9.43997Z" fill="#418AC3"/>
</svg>
