<svg width="48" height="48" viewBox="0 0 48 48" fill="none" xmlns="http://www.w3.org/2000/svg">
<g clip-path="url(#clip0)">
<path d="M5.37402 15.577H1.19537C0.887437 15.5771 0.59214 15.6994 0.374395 15.9172C0.156651 16.1349 0.0342791 16.4302 0.0341797 16.7382C0.0342791 17.0461 0.156651 17.3414 0.374395 17.5591C0.59214 17.7769 0.887437 17.8993 1.19537 17.8994H5.37384C5.68179 17.8993 5.97711 17.7769 6.19488 17.5592C6.41264 17.3414 6.53503 17.0461 6.53512 16.7382C6.53503 16.4302 6.41265 16.1349 6.19491 15.9172C5.97716 15.6994 5.68187 15.5771 5.37393 15.577H5.37402ZM46.8054 15.577H42.6269C42.319 15.5771 42.0237 15.6994 41.806 15.9172C41.5882 16.1349 41.4658 16.4302 41.4657 16.7382C41.4658 17.0461 41.5882 17.3414 41.806 17.5591C42.0237 17.7769 42.319 17.8993 42.6269 17.8994H46.8056C47.1135 17.8993 47.4088 17.7769 47.6266 17.5591C47.8443 17.3414 47.9667 17.0461 47.9668 16.7382C47.9667 16.4302 47.8443 16.1349 47.6266 15.9172C47.4088 15.6994 47.1135 15.5771 46.8056 15.577H46.8054ZM10.158 30.5813C9.9402 30.3636 9.64486 30.2413 9.33691 30.2413C9.02896 30.2413 8.73361 30.3636 8.51579 30.5813L5.47546 33.6188C5.25777 33.8366 5.13549 34.132 5.13549 34.4399C5.13549 34.7479 5.25777 35.0432 5.47546 35.261C5.70234 35.4879 6.00046 35.6011 6.29653 35.6011C6.44904 35.6013 6.60009 35.5714 6.741 35.513C6.8819 35.4546 7.00988 35.369 7.1176 35.261L10.157 32.2216C10.3747 32.0038 10.497 31.7085 10.497 31.4005C10.497 31.0926 10.3747 30.7972 10.157 30.5794L10.158 30.5813ZM40.3987 0.339976C40.1809 0.122286 39.8855 0 39.5776 0C39.2696 0 38.9743 0.122286 38.7564 0.339976L35.8003 3.29612C35.5826 3.51393 35.4604 3.80926 35.4604 4.11719C35.4604 4.42511 35.5826 4.72044 35.8003 4.93825C35.9081 5.04618 36.0361 5.13178 36.177 5.19013C36.3179 5.24848 36.4689 5.27844 36.6215 5.27829C36.9186 5.27829 37.2158 5.16579 37.4425 4.93816L40.3985 1.9822C40.6162 1.7644 40.7384 1.46908 40.7385 1.16116C40.7385 0.85323 40.6162 0.557896 40.3986 0.34007L40.3987 0.339976ZM12.199 3.29443L9.24442 0.339976C8.79095 -0.113307 8.05566 -0.113307 7.60219 0.339976C7.3845 0.557793 7.26222 0.853141 7.26222 1.16109C7.26222 1.46904 7.3845 1.76439 7.60219 1.9822L10.5567 4.93675C10.6643 5.04498 10.7923 5.13086 10.9332 5.18947C11.0741 5.24807 11.2252 5.27824 11.3778 5.27824C11.5304 5.27824 11.6815 5.24807 11.8224 5.18947C11.9633 5.13086 12.0913 5.04498 12.1989 4.93675C12.4166 4.71894 12.5389 4.42358 12.5389 4.11561C12.539 3.80764 12.4167 3.51226 12.199 3.29443ZM42.5243 33.6202L39.4961 30.5918C39.2766 30.3826 38.984 30.2676 38.6808 30.2712C38.3776 30.2749 38.0879 30.397 37.8735 30.6114C37.6591 30.8258 37.537 31.1155 37.5334 31.4187C37.5297 31.7219 37.6447 32.0145 37.8539 32.234L40.882 35.2621C41.1089 35.489 41.407 35.6023 41.7031 35.6023C41.9992 35.6023 42.2975 35.4898 42.5242 35.2621C42.9777 34.8088 42.9777 34.0734 42.5242 33.6201L42.5243 33.6202ZM24.0006 3.15324C15.971 3.15324 9.43858 9.98625 9.43858 18.3853C9.43858 22.29 10.8373 26.493 13.2761 29.9166C15.1492 32.5458 16.139 35.4713 16.139 38.3766V45.6775C16.139 46.9581 17.1809 47.9998 18.4614 47.9998H29.5399C30.8205 47.9998 31.8623 46.958 31.8623 45.6775V38.3766C31.8623 35.4704 32.8523 32.5458 34.7251 29.9166C37.1639 26.4931 38.5627 22.29 38.5627 18.3853C38.5625 9.98522 32.0301 3.15324 24.0007 3.15324H24.0006ZM29.5396 45.6785H18.4611V44.1597H24.0004C24.3083 44.1597 24.6037 44.0373 24.8214 43.8195C25.0392 43.6018 25.1616 43.3065 25.1617 42.9985C25.1616 42.6906 25.0392 42.3953 24.8214 42.1775C24.6037 41.9598 24.3083 41.8374 24.0004 41.8373H18.4611V40.3186H29.5398L29.5411 45.6783L29.5396 45.6785ZM22.3721 24.0131L20.8192 20.6956H27.1817L25.629 24.0131C25.5679 24.1437 25.5315 24.2846 25.522 24.4284L24.6215 37.9941H23.3796L22.4791 24.4284C22.4695 24.2846 22.4322 24.1437 22.3722 24.0131H22.3721ZM32.8334 28.5691C30.7593 31.4806 29.6264 34.7316 29.5444 37.9952H26.949L27.8247 24.7998L30.0587 20.0265C30.2271 19.6668 30.2 19.246 29.9868 18.9108C29.7736 18.5757 29.4042 18.3729 29.0071 18.3729H18.9946C18.7992 18.3729 18.607 18.4222 18.4357 18.5163C18.2645 18.6103 18.1197 18.746 18.0148 18.9108C17.8017 19.2458 17.7745 19.6667 17.9429 20.0263L20.1771 24.7996L21.0528 37.995H18.4562C18.3742 34.7313 17.2413 31.4804 15.1672 28.5689C13.034 25.5743 11.7605 21.7673 11.7605 18.385C11.7605 11.2665 17.2512 5.47535 24.0001 5.47535C30.749 5.47535 36.2397 11.2668 36.2397 18.3843C36.2399 21.7669 34.9664 25.5739 32.8332 28.5685L32.8334 28.5691Z" fill="#418AC3"/>
</g>
<defs>
<clipPath id="clip0">
<rect width="48" height="48" fill="white"/>
</clipPath>
</defs>
</svg>
